<?xml version="1.0" encoding="utf-8"?>
<!-- Generator: Adobe Illustrator 22.1.0, SVG Export Plug-In . SVG Version: 6.00 Build 0)  -->
<svg version="1.1" id="Layer_1" xmlns="http://www.w3.org/2000/svg" xmlns:xlink="http://www.w3.org/1999/xlink" x="0px" y="0px"
	 viewBox="0 0 500 500" style="enable-background:new 0 0 500 500;" xml:space="preserve">
<style type="text/css">
	.st0{fill:#FF8A24;}
</style>
<g>
	<g>
		<path class="st0" d="M239.2,284.8c0.8-3,1.5-6,1.9-9.1l0.3-1.9l-1.5-1.2c-0.1-0.1-0.3-0.2-0.4-0.4c-0.7-0.7-1.3-1.3-1.8-2.1
			l-1.4-2l-2.3,0.7c-0.3,0.1-0.6,0.1-1,0.1c-1.5,0-3-0.7-4-1.9c-0.9-1-1.2-2.2-1-3.6c0.3-1.9,0.6-3.8,0.9-5.8l0.4-2.5L227,254
			c-5.4-2.6-8-5.7-8.6-10.3c-0.1-0.5-0.1-1,0-1.6l0.2-3.5l-3.5-0.2c-4.1-0.2-7.7-0.7-11.2-1.4c-0.9-0.2-1.8-0.5-2.9-0.9l-2.2-0.8
			l-1.5,1.8c-0.7,0.8-1.6,1.2-2.9,1.2c-1.8,0-3-0.8-3.5-2.3l-0.8-2.1l-2.3-0.1l-0.2,0l-2.6-0.3l-1,2.3c-0.6,1.4-2.1,3.9-5.5,4.5
			c-0.8,0.2-1.7,0.2-2.4,0.2c-7.5,0-10.7-7.8-11.1-14.6c0-0.1,0-0.2,0-0.3l0.2-0.9l-2.5-4.1c-0.3-0.2-0.7-0.3-1-0.5l-3.9,0.5
			c-0.2,0.2-0.4,0.4-0.7,0.5l-5.7-2.5l-1.5-0.9L129,269.6c0.5,0.1,0.9,0.2,1.4,0.3c4.5,1.5,7,6.4,5.5,10.9c-1.5,4.5-6.4,7-10.9,5.5
			c-0.8-0.3-1.6-0.7-2.2-1.1l-37.4,93.2c4.2,7.3,22,22.9,56.8,34.3c17.1,5.6,34.1,8.7,48,8.7c0,0,0,0,0,0c9.5,0,15.2-1.5,18.1-2.7
			l33.4-129.3C240.5,289,238.4,287.7,239.2,284.8z M188.4,366.1c-1.2,3.7-5.2,5.8-9,4.5c-3.7-1.2-5.8-5.2-4.5-9
			c1.2-3.7,5.2-5.8,9-4.5C187.6,358.4,189.6,362.4,188.4,366.1z M201.9,285.9c0.9-2.7,3.8-4.2,6.5-3.3c2.7,0.9,4.2,3.8,3.3,6.5
			c-0.9,2.7-3.8,4.2-6.5,3.3C202.5,291.4,201,288.5,201.9,285.9z M218.4,346.9c-1.7,5.2-7.3,8-12.4,6.3c-5.2-1.7-8-7.3-6.3-12.4
			c1.7-5.2,7.3-8,12.4-6.3C217.3,336.1,220.1,341.7,218.4,346.9z"/>
		<path class="st0" d="M341,216c-4,0.9-8.1,1.5-12.3,2.1l-2.1,0.3l-0.7,2c-1.4,4-4.1,7.5-7.6,10l-0.5,0.4c-0.5,0.5-1,1-1.5,1.5
			c-0.5,0.6-1,1.1-1.5,1.7c-0.5,0.5-0.9,1.1-1.4,1.6c-2.9,3.2-5.9,5.8-9.1,8c-2,1.3-4.2,2.4-6.5,3.2l-2.3,0.8v2.5l0,0.2
			c0,1.2,0,2.4-0.1,3.6c-0.1,6.2-0.3,12.5,1.7,18.9c0.4,1.3,0.3,2.3-0.4,3.1c-0.8,1.1-2.3,1.7-3.8,1.7c-0.9,0-1.6-0.2-2.3-0.6
			l-5.7-3.7l0.4,6.8c0.7,12.1,2.2,24.2,4.7,36.1c0.3,1.4,0,2.5-0.8,3.5c-0.9,1.1-2.5,1.8-3.9,1.8c-2.6,0-3-2-3.1-2.7
			c-2-9.7-3.5-19.5-4.3-29.2l-0.8-8.2l-0.9,1.1l9.8,85.9c1.1-0.6,2.2-1,3.5-1.2c6.3-1.1,12.3,3,13.4,9.3c1.1,6.3-3,12.3-9.3,13.4
			c-1.8,0.3-3.5,0.2-5.1-0.2l1.7,14.6c4.4,2.7,15.4,6.2,34.2,6.2c10.2,0,21-1,32.1-3c18.5-3.3,32.6-8.4,42.8-13.4l-7.1-20.1L341,216
			z M316,345.7c-3.9,0.7-7.5-1.9-8.2-5.7c-0.7-3.9,1.9-7.5,5.7-8.2c3.9-0.7,7.5,1.9,8.2,5.7C322.5,341.3,319.9,345,316,345.7z
			 M333.9,403.9c-2,0.4-3.9-1-4.2-2.9c-0.4-2,1-3.9,2.9-4.2c2-0.4,3.9,1,4.2,2.9C337.2,401.7,335.9,403.6,333.9,403.9z M333.9,315.3
			c-2,0.4-3.9-1-4.2-2.9c-0.4-2,1-3.9,2.9-4.2c2-0.4,3.9,1,4.2,2.9C337.2,313.1,335.9,315,333.9,315.3z"/>
		<path class="st0" d="M408.2,344.3c-0.7,1.4-2,2.5-3.7,2.8c-2.8,0.5-5.5-1.3-6-4.1c-0.5-2.8,1.3-5.5,4.1-6c1.4-0.3,2.9,0.1,4,0.9
			l-13.5-54.3c-0.7,0.4-1.5,0.6-2.4,0.8c-4.7,0.8-9.2-2.3-10-7c-0.8-4.7,2.3-9.2,7-10c0.5-0.1,0.9-0.1,1.4-0.1l-15.3-61.8
			c-1.8-0.4-3.5-1.1-5.2-2l-2.4-1.3l-1.8,2.1c-1.2,1.4-2.5,2.6-4,3.7l45.3,182.4c5.9-3.5,9.8-6.8,11.7-9.2L408.2,344.3z"/>
	</g>
	<g>
		<path d="M476.3,337.1l-28-114.1c-3.3-13.8-15.6-23.5-29.8-23.5c-2.4,0-4.8,0.3-7.2,0.9l-16.7,4c-0.8-2.7-1.7-5-2.6-7l0.1-0.3
			c1-3.4,1.5-6.9,1.3-10.5c6.8-9.3,8.1-23.4-2.4-33.6c-1-1-2.1-1.9-3.2-2.8c-0.9-1.2-1.9-2.4-3-3.4c-0.5-0.5-1-0.9-1.5-1.4
			c-1.9-1.7-3.7-3.4-5.2-5.2c-3.9-5-10.9-8-18.7-8c-1.1,0-2.2,0.1-3.3,0.2c-0.9-1-1.8-2-2.7-3c-4.8-4.9-11.3-7.6-18.4-7.6
			c-6.7,0-13.2,2.5-17.9,6.9c-0.4-0.2-0.8-0.4-1.2-0.6c0.6-2.2,1-4.6,1-7c0-13.2-10-24.1-22.8-25.5c0-0.2,0-0.5,0-0.7
			c0-8.9-7.2-16.1-16.1-16.1s-16.1,7.2-16.1,16.1c0,5.5,2.8,10.4,7,13.3c-2.2,3.8-3.5,8.2-3.5,12.9c0,4.4,1.1,8.6,3.1,12.3
			c-0.3,0.2-0.7,0.3-1,0.5c-2.2-2.3-5.3-3.8-8.8-3.8c-2.6,0-5,0.8-7,2.2c-0.1-0.1-0.2-0.2-0.4-0.2c-2.9-8.1-10.6-13.9-19.7-13.9
			c-4.5,0-8.7,1.5-12.2,3.9c-3.8-2.8-8.2-5.3-13.4-6.5c-2.2-0.5-4.5-0.8-6.7-0.8c-11.3,0-20.9,7.2-25.2,18.8
			c-8.8,0.4-16.4,3.6-24.6,10.4c-5.4,4.5-8.5,12.7-7.9,20.8c-5.4,3.9-9.5,9.9-10.9,16.5c-1.3,5.7-0.6,11.4,2,16.2
			c-2.5,0.7-4.8,2.3-6.6,4.7c-0.4,0.5-0.7,1-1,1.5l-9.1-3.6c-3.6-1.4-7.4-2.1-11.2-2.1c-12.7,0-23.9,7.6-28.6,19.4L32.9,326.6
			c-3,7.6-2.9,16,0.4,23.5c3.3,7.5,9.3,13.3,16.9,16.3l18.4,7.3l-9.6,23.9l-0.1,0.2c-3,9.1,3,20.2,16.8,31.3
			c12.9,10.4,31.5,19.8,52.2,26.6c18.8,6.2,37.8,9.6,53.5,9.6c0,0,0,0,0,0c20.2,0,33.1-5.4,36.3-15.3l25.3-98c0.1,0,0.2,0,0.2,0
			c5,0,8.8-3.3,9.6-8.3c0.7-4,1.5-8.2,2.2-12.1c2-10.3,4.1-21,4.2-31.7c0.5-0.2,0.9-0.4,1.3-0.6l15.3,134.3l0,0.2
			c2.4,13.4,22.2,21.4,52.9,21.4c11.2,0,23.1-1.1,35.3-3.3c21.5-3.9,41.1-10.7,55.4-19.1c15.2-9.1,22.6-19.2,21-28.6l-6.2-25.2
			l19.3-4.6c8-1.9,14.7-6.8,19-13.8C476.9,353.3,478.2,345.1,476.3,337.1z M292.4,102.3c9.9,0.6,17.7,8.8,17.7,18.8
			c0,10.4-8.5,18.9-18.9,18.9s-18.9-8.5-18.9-18.9c0-3.8,1.2-7.4,3.1-10.3c0.9,0.1,1.7,0.2,2.6,0.2
			C284.4,111,289.8,107.5,292.4,102.3z M268.9,94.9c0-5.1,4.1-9.2,9.2-9.2s9.2,4.1,9.2,9.2s-4.1,9.2-9.2,9.2
			C273.1,104.2,268.9,100,268.9,94.9z M258.9,137c2.9,0,5.3,2.4,5.3,5.3c0,2.9-2.4,5.3-5.3,5.3c-2.9,0-5.3-2.4-5.3-5.3
			C253.6,139.3,256,137,258.9,137z M231.8,125c7.7,0,14,6.3,14,14s-6.3,14-14,14c-7.7,0-14-6.3-14-14S224.1,125,231.8,125z
			 M39.7,347.4c-2.5-5.8-2.7-12.3-0.3-18.2L82.9,220c3.6-9.2,12.3-15.1,22.2-15.1c3,0,5.9,0.6,8.7,1.7l8.7,3.4
			c-1.4,4.3-1.7,9-0.9,14.1l-2.5-1c-2.8-1.1-5.8-1.7-8.8-1.7c-10,0-18.8,6-22.5,15.3l-33.1,83.1c-2.4,6-2.2,12.6,0.3,18.5
			c2.6,5.9,7.3,10.5,13.3,12.8l8.2,3.2l-5.2,13L52.8,360C46.9,357.7,42.2,353.2,39.7,347.4z M70.8,344.7c-4.3-1.7-7.7-5-9.5-9.2
			c-1.8-4.2-1.9-8.9-0.2-13.2l33.1-83.1c2.6-6.7,8.9-11,16.1-11c2.2,0,4.3,0.4,6.3,1.2l8.1,3.2c0.1,0.1,0.2,0.3,0.4,0.4L79,347.9
			L70.8,344.7z M234.2,347.6c0.7,0.8,1.5,1.6,2.5,2.2l-25.3,98.1c-2.3,6.6-13.4,10.5-29.8,10.5c0,0,0,0,0,0c-15,0-33.3-3.3-51.4-9.2
			C87.3,435,61.8,412,65.5,400l65.7-163.7c0.7,0.1,1.3,0.2,2,0.2c4,0,7.5-2,9.4-5.5c1.3-2.4,2.5-4.8,3.5-6.9
			c1.9,2.9,5.1,4.6,8.8,4.6c1.1,0,2.2-0.1,3.2-0.4c1.2,9.9,7,19.4,17.8,19.4c1.2,0,2.5-0.1,3.7-0.4c3.1-0.6,5.7-2.1,7.8-4.3
			c1.8,1.5,4.2,2.3,6.8,2.3c2.4,0,4.6-0.7,6.4-2c0.6,0.2,1.2,0.3,1.7,0.4c3,0.7,6,1.1,9.3,1.4c1.3,7.4,5.9,11.4,10.1,13.8
			c-0.2,1.1-0.4,2.2-0.5,3.4c-0.5,3.4,0.4,6.6,2.5,9.2c2.4,2.8,6.1,4.4,9.7,4.3c0.2,0.2,0.4,0.5,0.7,0.7c-0.4,2.2-0.8,4.3-1.4,6.4
			c-1.4,5,0.6,9.7,4.9,12.1c0.8,10.2-1.4,20.9-3.5,31.2c-0.8,4-1.7,8.1-2.4,12.1C231.1,341.8,232,345,234.2,347.6z M261.9,284
			l-1.9,5c-0.3,0.9-0.7,1.8-1.2,2.7c-0.6,1.2-2,1.7-3.1,1.8l-3.3,0.2l0.1,3.3c0.2,11-1.9,22.2-4,33.1c-0.8,4-1.6,8.2-2.3,12.3
			c-0.2,1.1-0.7,2.6-2.8,2.6c-1.5,0-3-0.7-4-1.9c-0.9-1-1.2-2.2-0.9-3.6c0.6-3.9,1.4-7.8,2.3-11.9c2.4-11.5,4.9-23.4,3.4-35.3
			l-0.3-2.2l-2.1-0.7c-0.8-0.3-3.5-1.5-2.6-4.7c0.8-3,1.5-6,1.9-9.1l0.3-1.9l-1.5-1.2c-0.1-0.1-0.3-0.2-0.4-0.4
			c-0.7-0.7-1.3-1.3-1.8-2.1l-1.4-2l-2.3,0.7c-0.3,0.1-0.6,0.1-1,0.1c-1.5,0-3-0.7-4-1.9c-0.9-1-1.2-2.2-1-3.6
			c0.3-1.9,0.6-3.8,0.9-5.8l0.4-2.5L227,254c-5.4-2.6-8-5.7-8.6-10.3c-0.1-0.5-0.1-1,0-1.6l0.2-3.5l-3.5-0.2
			c-4.1-0.2-7.7-0.7-11.2-1.4c-0.9-0.2-1.8-0.5-2.9-0.9l-2.2-0.8l-1.5,1.8c-0.7,0.8-1.6,1.2-2.9,1.2c-1.8,0-3-0.8-3.5-2.3l-0.8-2.1
			l-2.3-0.1l-0.2,0l-2.6-0.3l-1,2.3c-0.6,1.4-2.1,3.9-5.5,4.5c-0.8,0.2-1.7,0.2-2.4,0.2c-7.5,0-10.7-7.8-11.1-14.6
			c0-0.1,0-0.2,0-0.3l0.2-0.9l-2.5-4.1c-0.3-0.2-0.7-0.3-1-0.5l-3.9,0.5c-0.2,0.2-0.4,0.4-0.7,0.5l-5.7-2.5l-2.6-1.5
			c-1-0.1-1.4-0.2-2.7-0.8l-4.7,1.7c-1.2,2.6-2.8,6.1-4.6,9.4c-0.9,1.6-2.5,1.9-3.3,1.9c-1.6,0-3.6-0.9-4.1-2.9
			c-2.1-8.2-1.2-15.1,2.8-20.4c1.2-1.6,2.7-2.5,4.2-2.3l2.4,0.2l1-2.2c0.3-0.8,0.7-1.5,1.1-2.3l0.8-1.8l-1.5-2.2
			c-3.2-4.7-3-9.7-2.2-13c1.2-5.5,4.8-10.5,9.6-13.4l2-1.2L149,166c-1-6.4,1.1-13.3,5.2-16.7c7.2-5.9,13.3-8.6,20.7-8.8
			c0.3,0,0.6,0,0.9,0l3.6,0l1.1-3.1c0.2-0.5,0.3-0.9,0.5-1.4c3.3-8.9,10.3-14.3,18.8-14.3c1.7,0,3.4,0.2,5.1,0.6
			c3.7,0.9,7,2.6,10,4.7c-2.4,3.4-3.8,7.6-3.8,12c0,11.5,9.4,20.9,20.9,20.9c7.5,0,14.1-4,17.7-9.9c2.2,2.7,5.6,4.4,9.3,4.4
			c6.7,0,12.2-5.5,12.2-12.2c0-0.8-0.1-1.6-0.2-2.3c0.6-0.4,1.3-0.6,2-0.9c4.7,4.8,11.2,7.8,18.4,7.8c9.3,0,17.5-5,22-12.4
			c0.9,0.5,1.7,1,2.6,1.5l2.5,1.7l2-2.3c0.3-0.4,0.7-0.8,1-1.1c3.5-3.5,8.5-5.6,13.7-5.6c5.2,0,10,2,13.4,5.5c1.3,1.3,2.5,2.6,3.6,4
			l1.3,1.6l2-0.4c1.3-0.3,2.7-0.4,4.1-0.4c5.6,0,10.7,2.1,13.3,5.4c1.8,2.3,3.9,4.2,5.9,6.1c0.5,0.4,0.9,0.9,1.4,1.3
			c0.9,0.8,1.6,1.7,2.3,2.7l0.3,0.5l0.4,0.3c1.1,0.8,2,1.7,3,2.5c7.9,7.7,6.5,18.6,1,25.4l-0.9,1.1l0.1,1.4c0.3,3.3,0,6.3-0.9,9.3
			l-0.9,2.9l0.6,1.2c1.6,3.2,2.8,7,3.5,9.6c0.4,1.6-0.2,2.8-0.7,3.4l-1.1,1.5l1.2,3c1.6,4.1,3.1,8,4.1,12.1c0.3,1.3,0.1,2.4-0.6,3.3
			c-0.8,1.1-2.4,1.8-3.9,1.8c0,0,0,0,0,0c-1.8,0-3-0.9-3.5-2.8c-1-4.1-2.6-7.9-4-11.6c-1.6-3.9-3-7.6-3.9-11.4l-0.5-2.1l-2-0.5
			c-1.8-0.4-3.6-1.1-5.3-2.1l-2.4-1.3l-1.8,2.1c-7.7,9-21.7,11.9-35.6,13.7l-2.1,0.3l-0.7,2c-1.4,4-4.1,7.5-7.6,10l-0.5,0.4
			c-0.5,0.5-1,1-1.5,1.5c-0.5,0.6-1,1.1-1.5,1.7c-0.5,0.5-0.9,1.1-1.4,1.6c-2.9,3.2-5.9,5.8-9.1,8c-2,1.3-4.2,2.4-6.5,3.2l-2.3,0.8
			v2.5l0,0.2c0,1.2,0,2.4-0.1,3.6c-0.1,6.2-0.3,12.5,1.7,18.9c0.4,1.3,0.3,2.3-0.4,3.1c-0.8,1.1-2.3,1.7-3.8,1.7
			c-0.9,0-1.6-0.2-2.3-0.6l-5.7-3.7l0.4,6.8c0.7,12.1,2.2,24.2,4.7,36.1c0.3,1.4,0,2.5-0.8,3.5c-0.9,1.1-2.5,1.8-3.9,1.8
			c-2.6,0-3-2-3.1-2.7c-2-9.7-3.5-19.5-4.3-29.2l-0.8-8.2l-5.3,6.3c-0.6,0.7-1.3,1.2-2.1,1.4c-1.4,0.4-2.9,0-4-1.1L261.9,284z
			 M416.2,426.6c-13.5,8.1-32.4,14.6-53.1,18.3c-11.8,2.1-23.2,3.2-34,3.2c-25.8,0-44.3-6.3-46.2-15.7l-15.6-136.5
			c1.4,0.2,2.8,0.1,4.1-0.3c0,0,0,0,0,0c0.9,8.2,2.2,16.4,3.9,24.5c1,5,4.9,8.2,9.9,8.2c3.6,0,7-1.6,9.2-4.4
			c2.1-2.6,2.9-5.8,2.2-9.2c-2.1-10-3.5-20.1-4.2-30.3c3.8,0.1,7.6-1.6,9.7-4.5c1.9-2.6,2.4-5.9,1.4-9.2c-1.6-5.4-1.5-10.9-1.4-16.8
			c0-0.5,0-1,0-1.5c2-0.8,4-1.9,5.8-3.1c3.7-2.4,7.1-5.4,10.4-9.1c0.5-0.5,1-1.1,1.5-1.6c0.5-0.5,1-1.1,1.4-1.6
			c0.3-0.4,0.7-0.7,1.1-1.1c4.1-2.9,7.2-6.7,9.2-11.2c13.7-1.9,27.2-5.1,36.1-13.9c0.8,0.3,1.6,0.7,2.5,0.9c1,3.6,2.4,7.1,3.7,10.4
			c1.5,3.7,2.9,7.2,3.8,10.8c1.2,4.9,5.1,8,10.1,8c0,0,0,0,0,0c1.7,0,3.5-0.4,5.1-1.1l41,165.6C434.9,411.5,428.5,419.3,416.2,426.6
			z M398.5,233.9c0.4-0.9,0.6-1.8,0.7-2.7l7.7-1.9c1.3-0.3,2.7-0.5,4.1-0.5c8,0,14.9,5.5,16.8,13.3l21.3,86.8
			c1.1,4.5,0.3,9.1-2.1,13.1c-2.4,3.9-6.2,6.7-10.7,7.8l-8.6,2.1L398.5,233.9z M466.8,356.7c-3.3,5.4-8.6,9.2-14.7,10.7l-19.3,4.6
			l-3.4-13.6l8.5-2c6.3-1.5,11.6-5.4,15-10.9c3.4-5.5,4.4-12,2.9-18.3l-21.3-86.8c-2.6-10.9-12.3-18.5-23.5-18.5
			c-1.9,0-3.8,0.2-5.7,0.7l-7.2,1.7c-1-3.4-2.3-6.6-3.5-9.8c0.5-1.1,0.9-2.2,1-3.4l17.2-4.1c1.8-0.4,3.7-0.7,5.6-0.7
			c11,0,20.6,7.5,23.1,18.3l28,114.1C471.1,344.9,470.1,351.3,466.8,356.7z"/>
		<path d="M258.1,58.6c6.2,0,11.3-5.1,11.3-11.3c0-6.2-5.1-11.3-11.3-11.3c-6.2,0-11.3,5.1-11.3,11.3
			C246.8,53.5,251.8,58.6,258.1,58.6z M258.1,42.9c2.4,0,4.4,2,4.4,4.4c0,2.4-2,4.4-4.4,4.4c-2.4,0-4.4-2-4.4-4.4
			C253.6,44.9,255.6,42.9,258.1,42.9z"/>
		<path d="M235.3,193.3c-6.2,0-11.3,5.1-11.3,11.3c0,6.2,5.1,11.3,11.3,11.3c6.2,0,11.3-5.1,11.3-11.3
			C246.6,198.4,241.6,193.3,235.3,193.3z M235.3,209c-2.4,0-4.4-2-4.4-4.4c0-2.4,2-4.4,4.4-4.4c2.4,0,4.4,2,4.4,4.4
			C239.8,207.1,237.8,209,235.3,209z"/>
		<path d="M290.8,174.9c0-8.9-7.2-16.1-16.1-16.1c-8.9,0-16.1,7.2-16.1,16.1c0,8.9,7.2,16.1,16.1,16.1
			C283.6,191,290.8,183.8,290.8,174.9z M265.4,174.9c0-5.1,4.1-9.2,9.2-9.2s9.2,4.1,9.2,9.2s-4.1,9.2-9.2,9.2
			C269.6,184.1,265.4,180,265.4,174.9z"/>
		<path d="M234.9,99.7c6.2,0,11.3-5.1,11.3-11.3c0-6.2-5.1-11.3-11.3-11.3c-6.2,0-11.3,5.1-11.3,11.3
			C223.6,94.6,228.7,99.7,234.9,99.7z M234.9,83.9c2.4,0,4.4,2,4.4,4.4c0,2.4-2,4.4-4.4,4.4c-2.4,0-4.4-2-4.4-4.4
			C230.5,85.9,232.5,83.9,234.9,83.9z"/>
	</g>
</g>
</svg>
