<?xml version="1.0" encoding="utf-8"?>
<!-- Generator: Adobe Illustrator 22.1.0, SVG Export Plug-In . SVG Version: 6.00 Build 0)  -->
<svg version="1.1" id="Layer_1" xmlns="http://www.w3.org/2000/svg" xmlns:xlink="http://www.w3.org/1999/xlink" x="0px" y="0px"
	 viewBox="0 0 500 500" style="enable-background:new 0 0 500 500;" xml:space="preserve">
<style type="text/css">
	.st0{fill:#FF8A24;}
</style>
<g>
	<path class="st0" d="M316.8,153.8c-2.7,2.8-6.7,5.1-13,5.1c-2.1,0-4-0.3-5.9-0.8c-1.3-0.4-2.7-0.2-3.8,0.6c-1.1,0.7-1.9,2-2,3.3
		c-0.4,3.7-0.5,7.5-0.7,11.1c-0.2,4.4-0.3,8.5-0.9,12.6c-0.2,1.2-1.7,2.1-3.1,2.3c-2.2,0.4-3.7,2.3-3.7,4.5
		c0.1,4.4,0.2,8.9,0.4,13.2c0.2,5,0.4,10.2,0.4,15.2c0,1.2-0.3,2-0.9,2.7c-0.7,0.7-1.9,1.1-3.1,1.1c-1,0-4.2-0.3-4.2-3.9
		c0-5.5-0.2-11.1-0.4-16.5c-0.2-6.8-0.4-13.9-0.4-20.7c0-1.3-0.6-2.6-1.6-3.5c-1-0.9-2.4-1.3-3.7-1.1c-1.8,0.3-4.2-0.8-4.6-2.8
		c-0.5-2.1-0.8-4.5-1-7.4c-0.1-2-1.5-3.7-3.5-4.2c-5.7-1.3-8.9-4.9-10.5-7.6c-0.7-1.1-1.9-1.9-3.2-2.1c-1.3-0.2-2.7,0.2-3.7,1
		c-0.2,0.2-0.5,0.4-0.7,0.6c-1.5,1-2.2,2.8-1.8,4.6l0.2,1c0.1,0.5,0.2,1.1,0.3,1.6c0.3,1.8,0,3.4-1.1,4.7c-1.2,1.5-3.3,2.4-5.2,2.4
		c-3.3,0-3.8-2.7-4-3.5c-0.2-0.8-0.3-1.6-0.5-2.4l-0.2-1.2c-0.4-2-2-3.4-4-3.6c-1.4-0.1-2.8-0.4-4-0.8c-1.3-0.4-2.7-0.3-3.8,0.4
		c-1.1,0.7-1.9,1.9-2.1,3.2c-0.8,5.7-1.7,12.6-1.6,19.7c0.2,10,1.5,19.9,2.9,29.5c1.3,9.4,2.6,19,2.8,28.5c0,1.5-0.4,2.7-1.2,3.5
		c-0.9,1-2.4,1.5-4.1,1.5c-0.6,0-5.5-0.1-5.6-5.2c-0.1-9.4-1.5-18.8-2.9-27.8c-1-6.5-2-13.1-2.5-19.6c-0.2-2.1-1.7-3.8-3.8-4.1
		c-0.1,0-0.1,0-0.2,0c-0.1,14.7,1.4,31.3,5.7,48.3c7.4,29.5,13.2,40.5,17.7,49.4c6.3,12.2,10.3,21.3,11.4,44.2
		c1.3,26.3-2.2,64.2-4.8,91.9c-0.4,3.8-0.7,7.8-1.1,11.5c-0.6,6.4,5.3,15.9,14.1,18.5c4.7,1.4,10.2,2.4,16.4,2.7
		c6.2-0.2,11.7-1.3,16.4-2.7c8.8-2.6,14.7-12.1,14.1-18.5c-0.3-3.7-0.7-7.7-1.1-11.5c-2.6-27.7-6.1-65.7-4.8-91.9
		c1.2-22.9,5.1-32,11.4-44.2c4.6-8.8,10.3-19.9,17.7-49.4C322.3,204.4,320,173.5,316.8,153.8z M249.3,307.1c-3.1,0-5.7-2.5-5.7-5.7
		s2.5-5.7,5.7-5.7c3.1,0,5.7,2.5,5.7,5.7S252.5,307.1,249.3,307.1z M256.4,229.3c-3.9,0-7.1-3.2-7.1-7.1c0-3.9,3.2-7.1,7.1-7.1
		s7.1,3.2,7.1,7.1C263.5,226.1,260.3,229.3,256.4,229.3z M288.9,271.7c-6.3,0-11.3-5.1-11.3-11.3s5.1-11.3,11.3-11.3
		s11.3,5.1,11.3,11.3S295.2,271.7,288.9,271.7z"/>
	<path d="M351.7,114c4.3-9,6.4-22.2-0.8-32.3c-2.7-3.7-5.8-6.9-9.4-9.5c-2.3-10.4-9.3-17.9-19.5-20.7c-4.3-1.2-9.2-1.2-13.9-0.1
		c-1.8-3.5-4.2-6.6-7.3-8.9C294.2,29.8,281.2,22,266.6,22c-4.8,0-9.5,0.9-14.1,2.6c-6.8,2.6-13.5,6.4-19,11
		c-1.3,0.3-2.6,0.7-3.9,1.1c-3.4,1.2-6.6,3-9.8,5.3c-5.9,0.5-10.7,2.1-14.9,4.9c-5.6,3.8-9.9,8.5-12.7,13.8
		c-5.4,2-10.3,5.3-14.7,9.8c-5.5,5.6-8.3,12.9-8,20.6c-0.1,0.7-0.2,1.5-0.3,2.3c-6.9,7.6-9.5,19-6.7,28.6c-0.9,0.5-1.8,1-2.7,1.6
		c-6.6,4.2-8.7,11.9-5.3,19.4c3.1,6.8,8.3,12.5,14.4,15.8c2.2,3.3,4.8,5.9,6.7,7.5c0.4,0.4,0.9,0.7,1.4,1.1
		c-1.9,21.5-1.3,47.3,5.6,74.6c8.1,32.3,14.9,45.2,19.8,54.7c4.8,9.3,7.7,14.9,8.7,34.2c1.3,24.5-2.2,61.4-4.7,88.4
		c-1.8,19.4-2.6,28.9-2.1,32.3c1.8,10.2,24,25.8,54.6,27.1c0.2,0,0.5,0.1,0.9,0.1h0.7c0.3,0,0.6,0,0.9-0.1
		c30.7-1.3,52.9-16.9,54.6-27.1c0.6-3.4-0.3-12.9-2.1-32.3c-2.5-27-5.9-63.9-4.7-88.4c1-19.3,3.9-24.9,8.7-34.2
		c4.9-9.5,11.6-22.4,19.8-54.7c9.1-36.2,7.2-69.9,3.1-94.2c2.3-1.7,4.4-3.8,6.1-6.3c4.9-7.2,6.2-16.7,3.8-25.3
		C351,115.3,351.4,114.7,351.7,114z M329,239.6c-7.9,31.3-14.3,43.7-19,52.7c-5.2,10-8.6,16.6-9.7,37.9c-1.3,25.2,2.2,62.5,4.7,89.7
		c1.3,13.5,2.6,27.5,2.2,29.9c-0.8,4.5-18.5,18.5-46.5,19.6c-0.1,0-0.2,0-0.3,0l-0.1,0l-0.6,0c-27.9-1.1-45.6-15.1-46.4-19.6
		c-0.4-2.4,0.9-16.4,2.2-29.9c2.5-27.2,6-64.6,4.7-89.7c-1.1-21.3-4.5-27.9-9.7-37.9c-4.7-9.1-11.1-21.5-19-52.7
		c-5.2-20.4-6.6-40-6.1-57.5c0.6,2.1,1.3,4.2,2.2,6.3c1.6,3.9,4.6,6.9,8.4,8.5c0.6,5.8,1.4,11.6,2.3,17.2c1.3,8.7,2.7,17.8,2.8,26.6
		c0.1,9.3,7.5,14.1,14.7,14.1c4.1,0,7.9-1.5,10.5-4.2c2.6-2.6,3.9-6.1,3.8-10c-0.2-10.1-1.5-20-2.9-29.6c-1.3-9.3-2.6-18.9-2.8-28.4
		c0-2.8,0.1-5.6,0.3-8.3c2.3,3.6,6.2,5.8,10.9,5.8c4.7,0,9.3-2.1,12.2-5.7c1.2-1.4,2-3,2.6-4.6c1.7,1.2,3.6,2.2,5.6,2.9
		c0.2,2.1,0.5,3.9,0.9,5.7c1.1,4.7,4.9,8.3,9.6,9.5c0,5.7,0.2,11.3,0.4,16.8c0.2,5.4,0.3,10.9,0.4,16.3c0,8.5,6.7,12.9,13.2,12.9
		c3.7,0,7.2-1.4,9.6-3.8c2.4-2.4,3.6-5.5,3.6-9.1c0-5.2-0.2-10.4-0.4-15.5c-0.1-3.2-0.2-6.5-0.3-9.8c3.6-1.8,6.1-5,6.6-8.7
		c0.7-4.5,0.8-9.1,1-13.5c0.1-1.9,0.1-3.7,0.2-5.5c1,0.1,2,0.2,3.1,0.2c11.3,0,20.4-5.8,24.7-15.6c1.3-0.2,2.6-0.5,3.8-0.8
		C335.9,174.8,337.4,206.1,329,239.6z M343.5,110.1c-0.4,0.9-0.9,1.7-1.6,2.6c-0.9,1.2-1.1,2.8-0.6,4.2c2.4,6.4,1.6,14-2,19.3
		c-1.7,2.5-4.7,5.4-9.5,6.7c-0.6,0.2-1.1,0.3-1.8,0.4c-0.2,0-0.3,0-0.5,0.1c-0.8,0.1-1.6,0.2-2.4,0.2c-1.9,0.1-3.6,1.3-4.2,3.1
		c-1.2,3.7-5.3,12.2-17.2,12.2c-2.1,0-4-0.3-5.9-0.8c-1.3-0.4-2.7-0.2-3.8,0.6c-1.1,0.7-1.9,2-2,3.3c-0.4,3.7-0.5,7.5-0.7,11.1
		c-0.2,4.4-0.3,8.5-0.9,12.6c-0.2,1.2-1.7,2.1-3.1,2.3c-2.2,0.4-3.7,2.3-3.7,4.5c0.1,4.4,0.2,8.9,0.4,13.2c0.2,5,0.4,10.2,0.4,15.2
		c0,1.2-0.3,2-0.9,2.7c-0.7,0.7-1.9,1.1-3.1,1.1c-1,0-4.2-0.3-4.2-3.9c0-5.5-0.2-11.1-0.4-16.5c-0.2-6.8-0.4-13.9-0.4-20.7
		c0-1.3-0.6-2.6-1.6-3.5c-1-0.9-2.4-1.3-3.7-1.1c-1.8,0.3-4.2-0.8-4.6-2.8c-0.5-2.1-0.8-4.5-1-7.4c-0.1-2-1.5-3.7-3.5-4.2
		c-5.7-1.3-8.9-4.9-10.5-7.6c-0.7-1.1-1.9-1.9-3.2-2.1c-1.3-0.2-2.7,0.2-3.7,1c-0.2,0.2-0.5,0.4-0.7,0.6c-1.5,1-2.2,2.8-1.8,4.6
		l0.2,1c0.1,0.5,0.2,1.1,0.3,1.6c0.3,1.8,0,3.4-1.1,4.7c-1.2,1.5-3.3,2.4-5.2,2.4c-3.3,0-3.8-2.7-4-3.5c-0.2-0.8-0.3-1.6-0.5-2.4
		l-0.2-1.2c-0.4-2-2-3.4-4-3.6c-1.4-0.1-2.8-0.4-4-0.8c-1.3-0.4-2.7-0.3-3.8,0.4c-1.1,0.7-1.9,1.9-2.1,3.2
		c-0.8,5.7-1.7,12.6-1.6,19.7c0.2,10,1.5,19.9,2.9,29.5c1.3,9.4,2.6,19,2.8,28.5c0,1.5-0.4,2.7-1.2,3.5c-0.9,1-2.4,1.5-4.1,1.5
		c-0.6,0-5.5-0.1-5.6-5.2c-0.1-9.4-1.5-18.8-2.9-27.8c-1-6.5-2-13.1-2.5-19.6c-0.2-2.1-1.7-3.8-3.8-4.1c-1.1-0.2-3.8-1-5-4
		c-2.6-6.2-3.7-12.8-4.9-19.8l-0.1-0.3c0-0.3-0.1-0.5-0.2-0.8c0-0.1-0.1-0.2-0.1-0.3c-0.1-0.1-0.1-0.3-0.2-0.4
		c-0.1-0.1-0.2-0.3-0.3-0.4c-0.1-0.1-0.1-0.1-0.2-0.2c-0.1-0.1-0.3-0.3-0.4-0.4c0,0-0.1-0.1-0.1-0.1c-0.2-0.1-0.3-0.3-0.5-0.4
		c0,0,0,0-0.1,0c-0.2-0.1-0.4-0.2-0.6-0.3c0,0,0,0,0,0c-0.4-0.2-0.9-0.3-1.4-0.4c-0.1,0-0.3,0-0.4,0c-0.1,0-0.1,0-0.2,0l-0.2,0
		c-1.5,0-3-0.6-4.3-1.7c-1-0.8-2.2-2-3.3-3.4l0,0c0,0,0,0,0,0c-0.4-0.4-0.7-0.9-1.1-1.4c-0.4-0.5-0.8-1.1-1.2-1.7
		c-0.5-0.8-1.1-1.4-1.9-1.7c-4.7-2.3-8.9-6.7-11.3-12.1c-0.9-2-1.8-5.6,1.9-7.9c1.6-1,3.3-1.9,5.2-2.5c1.2-0.4,2.2-1.4,2.7-2.6
		s0.4-2.6-0.2-3.7c-3.7-7.4-1.8-17.8,4.4-23.7c0.8-0.8,1.3-1.8,1.4-2.9c0.1-1.1,0.2-2.2,0.4-3.1c0-0.1,0.1-0.3,0.1-0.3
		c0.1-0.4,0.1-0.7,0.1-1.1c-0.2-3.7,0.5-9.2,5.4-14.2c3.9-3.9,8.2-6.7,12.8-8.1c1.2-0.4,2.3-1.3,2.8-2.5c2.1-4.6,5.5-8.5,10.4-11.8
		c3.1-2.1,6.9-3.2,11.7-3.5c0.9,0,1.8-0.4,2.5-0.9c2.9-2.2,5.6-3.7,8.5-4.8c1.1-0.4,2.3-0.7,3.5-0.9c0.8-0.1,1.6-0.5,2.2-1
		c4.9-4.2,11-7.8,17.2-10.2c3.5-1.3,7.2-2,10.9-2c11.5,0,21.7,6.3,26.6,16.4c0.3,0.7,0.8,1.3,1.5,1.7c3,2.1,5.3,5.3,6.5,9.2
		c0.4,1.2,1.2,2.2,2.4,2.7c1.1,0.5,2.4,0.6,3.6,0.1c4.1-1.6,8.8-2,12.5-0.9c9.9,2.7,12.6,10.8,13.3,15.3c0.2,1.3,0.9,2.4,2,3.1
		c3.3,2.2,6.2,5,8.6,8.3C348.4,93.9,346.6,103.7,343.5,110.1z"/>
</g>
</svg>
