<?xml version="1.0" encoding="utf-8"?>
<!-- Generator: Adobe Illustrator 22.1.0, SVG Export Plug-In . SVG Version: 6.00 Build 0)  -->
<svg version="1.1" id="Layer_1" xmlns="http://www.w3.org/2000/svg" xmlns:xlink="http://www.w3.org/1999/xlink" x="0px" y="0px"
	 viewBox="0 0 500 500" style="enable-background:new 0 0 500 500;" xml:space="preserve">
<style type="text/css">
	.st0{fill:#FF8A24;}
</style>
<g>
	<path class="st0" d="M253,473.8c2.2,0,4.4,0.1,6.5,0.1c0,0,0.1,0,0.3-0.1l1.3-0.3l1.3-0.1c30.9-1.7,42.8-7.9,46.8-10.8
		c0.1-9.9,0.2-32.8,0.4-61c-25.3,14.2-89.1,17-113.7,1.8c0.2,27.3,0.3,49.6,0.3,59.2c4,2.9,15.9,9.1,46.8,10.8l1.3,0.1l1.3,0.3
		c0.2,0,0.2,0.1,0.3,0.1c2.2,0,4.3,0,6.5-0.1l0.3,0L253,473.8z"/>
	<path class="st0" d="M310.4,253.9c0.1-19,0.2-32.5,0.2-36.1c-0.4-3.1-8.4-10.9-12.6-15c-8.8-8.5-17.8-17.4-19.9-28.9
		c-1.2-6.6-3.9-30.5-6.5-57c-0.8,0.5-1.7,0.8-2.7,0.8c-2.7,0-4.9-2.2-4.9-4.9c0-2.7,2.2-4.9,4.9-4.9c0.6,0,1.3,0.1,1.8,0.4
		c-0.4-3.9-0.7-7.9-1.1-11.9c-0.5-5-0.9-9.7-1.2-14.1h-31.3c-0.4,4.4-0.8,9.1-1.2,14.1c0,0.3-0.1,0.6-0.1,0.9c1-0.6,2.2-0.9,3.5-0.9
		c4.1,0,7.4,3.3,7.4,7.4c0,4.1-3.3,7.4-7.4,7.4c-1.7,0-3.3-0.6-4.6-1.7c-2.8,29.4-5.9,57.3-7.2,64.5c-2.1,11.6-11.2,20.4-19.9,28.9
		c-4.3,4.2-12.2,11.9-12.6,15c0,3.6,0.1,17.4,0.2,36.7C219.3,268.4,285.4,267.1,310.4,253.9z M269.3,178.4c0,1.8-1.4,3.2-3.2,3.2
		s-3.2-1.4-3.2-3.2c0-1.8,1.4-3.2,3.2-3.2S269.3,176.6,269.3,178.4z M265.2,129.8c1.6,0,2.8,1.3,2.8,2.8c0,1.6-1.3,2.8-2.8,2.8
		s-2.8-1.3-2.8-2.8C262.4,131,263.6,129.8,265.2,129.8z M254.7,141.1c2.2,0,4,1.8,4,4c0,2.2-1.8,4-4,4c-2.2,0-4-1.8-4-4
		C250.7,142.9,252.5,141.1,254.7,141.1z M246.2,230.4c-2.3,0-4.2-1.9-4.2-4.2c0-2.3,1.9-4.2,4.2-4.2c2.3,0,4.2,1.9,4.2,4.2
		C250.5,228.5,248.6,230.4,246.2,230.4z"/>
	<path d="M341.7,299.4c-3.8-4.6-9.7-7.3-16.9-7.8c0.2-37.8,0.4-68.3,0.4-73.8c0-16.4-30.1-31.4-32.8-46.5
		c-2.3-12.4-11.1-98.7-12.5-135.2h4.2V25.3c0.1-0.5,0.1-1.1,0.1-1.6c0-6.9-5.6-12.4-12.4-12.4c-0.3,0-0.5,0-0.8,0
		c-1.7-0.2-3.6-0.3-5.5-0.3c-4.5,0-9.3,0.4-12.6,0.4c-3.4,0-8.1-0.4-12.6-0.4c-1.9,0-3.8,0.1-5.5,0.3c-0.3,0-0.5,0-0.8,0
		c-6.9,0-12.4,5.6-12.4,12.4c0,0.7,0.1,1.5,0.2,2.2v10.3h4.1c-1.4,36.4-10.2,122.7-12.5,135.2c-2.7,15-32.8,30.1-32.8,46.5
		c0,5.6,0.2,36.2,0.4,74.2c-5.8,1-10.5,3.5-13.8,7.4c-3.9,4.6-5.5,10.9-4.8,17.7c1,9,8.5,15.2,18.8,19.2
		c0.3,45.3,0.5,91.7,0.7,115.4c0.1,8.9,4.2,22.4,12.3,26.3c6.6,3.2,16.8,6.5,32.2,8.4c8.8,1.1,16.9,1.6,17.9,1.8
		c0.6,0.1,1.2,0.1,1.8,0.1c2.4,0,4.7,0,6.9-0.1c2.2,0,4.5,0.1,6.9,0.1c0.6,0,1.2,0,1.8-0.1c1-0.1,9-0.6,17.9-1.8
		c15.5-2,25.6-5.2,32.2-8.4c8-3.9,12.2-17.4,12.3-26.3c0.1-23.5,0.4-69.3,0.7-114.3c11.8-3.9,20.8-10.4,21.9-20.3
		C347.2,310.3,345.5,304,341.7,299.4z M324.7,299.8c1.8,2,3.4,4.5,3.1,6.6c-0.2,1.5-1.5,2.7-3.2,3.7
		C324.7,306.6,324.7,303.2,324.7,299.8z M203,198.2c8-7.8,16.3-15.9,18.1-25.4c2.1-11.6,11.2-98.2,12.6-136.6h38.1
		c1.4,38.4,10.5,125,12.6,136.6c1.7,9.5,10,17.6,18.1,25.4c6.8,6.7,14.6,14.2,14.6,19.6c0,3,0,13.7-0.1,31.6
		c-18.7,19.1-111.6,21-128.3-0.1c-0.1-16.6-0.1-28.2-0.1-31.5C188.4,212.4,196.2,204.8,203,198.2z M180.8,306.4
		C180.8,306.4,180.8,306.4,180.8,306.4c-0.1-0.3,0-0.7,0-1C180.8,305.7,180.8,306,180.8,306.4z M315.8,451.7
		c0,7.8-3.9,17.2-7.7,19.1c-7.2,3.5-17.2,6.1-29.7,7.7c-6.3,0.8-12.2,1.3-15.4,1.5c-1.5,0.1-2.1,0.2-2.5,0.2c-0.3,0-0.5,0.1-0.8,0.1
		c-2.2,0-4.4,0-6.7-0.1l-0.2,0l-0.2,0c-2.3,0-4.5,0.1-6.7,0.1c-0.2,0-0.5,0-0.8-0.1c-0.4-0.1-1-0.1-2.5-0.2c-3.2-0.3-9-0.7-15.4-1.5
		c-12.5-1.6-22.5-4.2-29.7-7.7c-3.9-1.9-7.7-11.3-7.7-19.1c-0.1-12.4-0.2-31.6-0.3-53.8c18.5,23.2,106.6,18.9,126.7-0.9
		C316,414,315.9,432.3,315.8,451.7z M340,316.3c0,0.4-0.1,0.8-0.2,1.2c0,0.1-0.1,0.3-0.1,0.4c-0.1,0.3-0.1,0.5-0.2,0.8
		c-0.1,0.2-0.1,0.3-0.2,0.5c-0.1,0.2-0.2,0.4-0.3,0.6c-0.1,0.2-0.2,0.3-0.3,0.5c-0.1,0.2-0.2,0.4-0.3,0.6c-0.1,0.2-0.2,0.3-0.3,0.5
		c-0.1,0.2-0.2,0.4-0.4,0.5c-0.1,0.2-0.3,0.4-0.4,0.5c-0.1,0.2-0.3,0.3-0.4,0.5c-0.2,0.2-0.3,0.4-0.5,0.5c-0.1,0.1-0.3,0.3-0.4,0.4
		c-0.2,0.2-0.4,0.4-0.6,0.5c-0.1,0.1-0.3,0.3-0.4,0.4c-0.2,0.2-0.4,0.3-0.6,0.5c-0.1,0.1-0.3,0.2-0.5,0.4c-0.2,0.2-0.5,0.3-0.7,0.5
		c-0.2,0.1-0.3,0.2-0.5,0.3c-0.3,0.2-0.5,0.3-0.8,0.5c-0.1,0.1-0.3,0.2-0.5,0.3c-0.3,0.2-0.6,0.3-0.9,0.5c-0.1,0.1-0.3,0.2-0.4,0.2
		c-0.3,0.2-0.7,0.3-1,0.5c-0.1,0.1-0.3,0.1-0.4,0.2c-0.4,0.2-0.7,0.4-1.1,0.5c-0.1,0.1-0.2,0.1-0.3,0.1c-0.4,0.2-0.8,0.4-1.2,0.5
		c-0.1,0-0.1,0.1-0.2,0.1c-0.5,0.2-0.9,0.4-1.4,0.6c0,0,0,0,0,0l0,0c-9.6,3.5-22.3,5.2-34.4,5.2c0,0,0,0,0,0
		c-14,0-26.9-2.1-34.5-5.7c-0.4-0.2-0.9-0.3-1.4-0.3c-0.5,0-0.9,0.1-1.4,0.3c-7.6,3.6-20.5,5.7-34.5,5.7c-14,0-28.8-2.3-38.7-7.1
		c-0.1,0-0.1-0.1-0.2-0.1c-0.4-0.2-0.7-0.4-1-0.5c-0.1,0-0.2-0.1-0.2-0.1c-0.3-0.2-0.7-0.4-1-0.6c0,0-0.1,0-0.1-0.1
		c-1-0.6-1.9-1.2-2.8-1.9c-0.1-0.1-0.2-0.2-0.3-0.3c-0.2-0.2-0.4-0.3-0.6-0.5c-0.1-0.1-0.3-0.2-0.4-0.4c-0.2-0.2-0.3-0.3-0.5-0.5
		c-0.1-0.1-0.3-0.3-0.4-0.4c-0.1-0.2-0.3-0.3-0.4-0.5c-0.2-0.2-0.3-0.4-0.5-0.6c-0.1-0.2-0.3-0.3-0.4-0.5c-0.2-0.3-0.4-0.5-0.6-0.8
		c-0.1-0.1-0.1-0.3-0.2-0.4c-0.1-0.2-0.2-0.4-0.4-0.6c-0.1-0.1-0.1-0.3-0.2-0.4c-0.1-0.2-0.2-0.4-0.3-0.7c-0.1-0.1-0.1-0.3-0.2-0.4
		c-0.1-0.2-0.2-0.5-0.2-0.7c0-0.1-0.1-0.2-0.1-0.4c-0.1-0.4-0.2-0.8-0.2-1.1c-0.6-5,0.6-9.6,3.3-12.8c1-1.2,2.3-2.3,3.7-3.1
		c-1,2.1-1.6,4.4-1.2,6.9c0.1,0.5,0.2,1,0.4,1.5c0,0.1,0.1,0.3,0.2,0.4c0.1,0.3,0.3,0.7,0.4,1c0.1,0.1,0.1,0.3,0.2,0.4
		c0.2,0.4,0.5,0.9,0.8,1.3c0,0.1,0.1,0.1,0.1,0.2c0.3,0.4,0.6,0.7,1,1.1c0.1,0.1,0.3,0.3,0.4,0.4c0.3,0.3,0.6,0.5,0.9,0.8
		c0.2,0.1,0.3,0.3,0.5,0.4c1.6,1.2,3.6,2.2,5.9,3.1c2.6,1,5.3,1.5,8.1,1.5c9,0,17.2-4.9,25.2-9.7c6.6-4,12.9-7.8,18.4-7.8
		c4.6,0,10.5,2.6,15.3,6.9c1.2,1.1,3.1,1.1,4.3,0c4.8-4.3,10.6-6.9,15.3-6.9c5.5,0,11.7,3.8,18.4,7.8c7.9,4.8,16.2,9.7,25.2,9.7
		c0,0,0,0,0,0c2.8,0,5.5-0.5,8.1-1.5c0.4-0.2,0.8-0.3,1.2-0.5l0,0c0.7-0.3,1.4-0.6,2-0.9c0,0,0,0,0,0c0.6-0.3,1.2-0.7,1.7-1
		c0,0,0.1-0.1,0.1-0.1c0.5-0.3,1-0.7,1.4-1c0.1-0.1,0.1-0.1,0.2-0.2c0.4-0.3,0.8-0.7,1.1-1c0.1-0.1,0.2-0.2,0.3-0.3
		c0.3-0.3,0.6-0.6,0.8-1c0.1-0.2,0.2-0.3,0.3-0.5c0.2-0.3,0.4-0.6,0.5-0.9c0.1-0.3,0.2-0.5,0.3-0.8c0.1-0.2,0.2-0.5,0.3-0.7
		c0.2-0.5,0.3-1,0.4-1.6c0.4-2.4-0.2-4.8-1.2-6.9c1.4,0.8,2.7,1.9,3.7,3.1C339.4,306.8,340.6,311.3,340,316.3z"/>
	<path class="st0" d="M171.9,303.6c-2.7,3.2-3.9,7.8-3.3,12.8c1.6,13.4,26.9,19.5,49.8,19.5c14,0,26.9-2.1,34.5-5.7
		c0.4-0.2,0.9-0.3,1.4-0.3c0.5,0,0.9,0.1,1.4,0.3c7.6,3.6,20.5,5.7,34.5,5.7c0,0,0,0,0,0c22.9,0,48.3-6.1,49.8-19.5
		c0.6-5-0.6-9.6-3.3-12.8c-1-1.2-2.3-2.3-3.7-3.1c1,2.1,1.6,4.4,1.2,6.9c-0.7,4.5-4.3,8.1-10.8,10.5c-2.6,1-5.3,1.5-8.1,1.5
		c0,0,0,0,0,0c-9,0-17.2-4.9-25.2-9.7c-6.6-4-12.9-7.8-18.4-7.8c-4.6,0-10.5,2.6-15.3,6.9c-1.2,1.1-3.1,1.1-4.3,0
		c-4.8-4.3-10.6-6.9-15.3-6.9c-5.5,0-11.7,3.8-18.4,7.8c-7.9,4.8-16.2,9.7-25.2,9.7c-2.8,0-5.5-0.5-8.1-1.5
		c-6.5-2.4-10.1-6-10.8-10.5c-0.4-2.4,0.2-4.8,1.2-6.9C174.2,301.3,173,302.3,171.9,303.6z"/>
</g>
</svg>
