<?xml version="1.0" encoding="utf-8"?>
<!-- Generator: Adobe Illustrator 22.1.0, SVG Export Plug-In . SVG Version: 6.00 Build 0)  -->
<svg version="1.1" id="Layer_1" xmlns="http://www.w3.org/2000/svg" xmlns:xlink="http://www.w3.org/1999/xlink" x="0px" y="0px"
	 viewBox="0 0 500 500" style="enable-background:new 0 0 500 500;" xml:space="preserve">
<style type="text/css">
	.st0{fill:#FF8A24;}
</style>
<g>
	<g>
		<path class="st0" d="M254.2,378.9c-25.1,0-47-14-58.1-34.7c0.3,51.4,0.6,102.4,0.7,118.4c4,2.9,15.9,9.1,46.8,10.8l1.3,0.1
			l1.3,0.3c0.2,0,0.2,0.1,0.3,0.1c2.2,0,4.3,0,6.5-0.1l0.3,0l0.3,0c2.2,0,4.4,0.1,6.5,0.1c0,0,0.1,0,0.3-0.1l1.3-0.3l1.3-0.1
			c30.9-1.7,42.8-7.9,46.8-10.8c0.1-15.7,0.4-65,0.7-115.3C298.9,366.3,278,378.9,254.2,378.9z"/>
		<path class="st0" d="M298.5,202.8c-8.8-8.5-17.8-17.4-19.9-28.9c-1.2-6.6-3.9-30.5-6.5-57c-0.8,0.5-1.7,0.8-2.7,0.8
			c-2.7,0-4.9-2.2-4.9-4.9c0-2.7,2.2-4.9,4.9-4.9c0.6,0,1.3,0.1,1.8,0.4c-0.4-3.9-0.7-7.9-1.1-11.9c-0.5-5-0.9-9.7-1.2-14.1h-31.3
			c-0.4,4.4-0.8,9.1-1.2,14.1c0,0.3-0.1,0.6-0.1,0.9c1-0.6,2.2-0.9,3.5-0.9c4.1,0,7.4,3.3,7.4,7.4c0,4.1-3.3,7.4-7.4,7.4
			c-1.7,0-3.3-0.6-4.6-1.7c-2.8,29.4-5.9,57.3-7.2,64.5c-2.1,11.6-11.2,20.4-19.9,28.9c-4.3,4.2-12.2,11.9-12.6,15
			c0,5.2,0.1,31.1,0.3,64.5c11-21,33.1-35.4,58.4-35.4c24.1,0,45.1,12.9,56.6,32.1c0.2-31.8,0.3-56.2,0.3-61.2
			C310.7,214.7,302.8,207,298.5,202.8z M246.8,230.4c-2.3,0-4.2-1.9-4.2-4.2c0-2.3,1.9-4.2,4.2-4.2c2.3,0,4.2,1.9,4.2,4.2
			C251,228.5,249.1,230.4,246.8,230.4z M255.2,149.1c-2.2,0-4-1.8-4-4c0-2.2,1.8-4,4-4c2.2,0,4,1.8,4,4
			C259.2,147.3,257.4,149.1,255.2,149.1z M265.8,129.8c1.6,0,2.8,1.3,2.8,2.8c0,1.6-1.3,2.8-2.8,2.8s-2.8-1.3-2.8-2.8
			C262.9,131,264.2,129.8,265.8,129.8z M266.6,181.6c-1.8,0-3.2-1.4-3.2-3.2s1.4-3.2,3.2-3.2s3.2,1.4,3.2,3.2
			S268.4,181.6,266.6,181.6z"/>
	</g>
	<path d="M325.3,294.9c0.2-39.4,0.4-71.4,0.4-77.1c0-16.4-30.1-31.4-32.8-46.5c-2.3-12.4-11.1-98.7-12.5-135.2h4.2V25.3
		c0.1-0.5,0.1-1.1,0.1-1.6c0-6.9-5.6-12.4-12.4-12.4c-0.3,0-0.5,0-0.8,0c-1.7-0.2-3.6-0.3-5.5-0.3c-4.5,0-9.3,0.4-12.6,0.4
		s-8.1-0.4-12.6-0.4c-1.9,0-3.8,0.1-5.5,0.3c-0.3,0-0.5,0-0.8,0c-6.9,0-12.4,5.6-12.4,12.4c0,0.7,0.1,1.4,0.2,2.1v10.3h4.1
		c-1.4,36.4-10.2,122.7-12.5,135.2c-2.7,15-32.8,30.1-32.8,46.5c0,5.7,0.2,37.9,0.4,77.4c-12.7,2.1-17,12-15.9,21.6
		c0.9,7.4,7.2,12.7,16.1,16.3c0.3,46.3,0.5,94.4,0.7,118.7c0.1,8.9,4.2,22.4,12.3,26.3c6.6,3.2,16.8,6.5,32.2,8.4
		c8.8,1.1,16.9,1.6,17.9,1.8c0.6,0.1,1.2,0.1,1.8,0.1c2.4,0,4.7,0,6.9-0.1c2.2,0,4.5,0.1,6.9,0.1c0.6,0,1.2,0,1.8-0.1
		c1-0.1,9-0.6,17.9-1.8c15.5-2,25.6-5.2,32.2-8.4c8-3.9,12.2-17.4,12.3-26.3c0.1-24.2,0.4-71.8,0.7-117.9c10-3.6,17.2-9.2,18.1-17.1
		C344.3,306.7,339.4,296.3,325.3,294.9z M181.3,297.8c0,4.8,0.1,9.6,0.1,14.5C174.6,307.5,178.1,301.4,181.3,297.8z M316.3,451.7
		c0,7.8-3.9,17.2-7.7,19.1c-7.2,3.5-17.2,6.1-29.7,7.7c-6.3,0.8-12.2,1.3-15.4,1.5c-1.5,0.1-2.1,0.2-2.5,0.2c-0.3,0-0.5,0.1-0.8,0.1
		c-2.2,0-4.4,0-6.7-0.1l-0.2,0l-0.2,0c-2.3,0-4.5,0.1-6.7,0.1c-0.2,0-0.5,0-0.8-0.1c-0.4-0.1-1-0.1-2.5-0.2c-3.2-0.3-9-0.7-15.4-1.5
		c-12.5-1.6-22.5-4.2-29.7-7.7c-3.9-1.9-7.7-11.3-7.7-19.1c-0.1-22.4-0.4-67.2-0.6-111.8c10.6,25.2,35.5,43,64.6,43
		c27.5,0,51.3-15.9,62.7-39C316.8,374.5,316.6,410.5,316.3,451.7z M271.7,298.6c-5.8,0-12.3,3.2-17.4,7.7
		c-5.1-4.5-11.6-7.7-17.4-7.7c-13.6,0-28.6,18.2-44.5,17.4c-0.1-1-0.1-2.1-0.1-3.1c0-34.2,27.8-61.9,61.9-61.9s61.9,27.8,61.9,61.9
		c0,1.1,0,2.1-0.1,3.1C300.1,316.7,285.2,298.6,271.7,298.6z M311.1,337.4c-9.5,22-31.4,37.5-56.9,37.5c-25.5,0-47.4-15.5-56.9-37.5
		c20.1,3.4,44.6,1.5,57-4.3C266.6,338.8,291,340.8,311.1,337.4z M317.3,282.5c-11.3-23.4-35.3-39.6-63.1-39.6
		c-29.3,0-54.5,18.1-64.9,43.7c-0.2-35.5-0.3-63.5-0.3-68.9c0-5.4,7.8-12.9,14.6-19.6c8-7.8,16.3-15.9,18.1-25.4
		c2.1-11.6,11.2-98.2,12.6-136.6h38.1c1.4,38.4,10.5,125,12.6,136.6c1.7,9.5,10,17.6,18.1,25.4c6.8,6.7,14.6,14.2,14.6,19.6
		C317.6,222.3,317.5,244.3,317.3,282.5z M325.2,313.5c0-6,0.1-11.9,0.1-17.7C328.5,298.8,336.5,307.6,325.2,313.5z"/>
</g>
</svg>
