<?xml version="1.0" encoding="utf-8"?>
<!-- Generator: Adobe Illustrator 22.1.0, SVG Export Plug-In . SVG Version: 6.00 Build 0)  -->
<svg version="1.1" id="Layer_1" xmlns="http://www.w3.org/2000/svg" xmlns:xlink="http://www.w3.org/1999/xlink" x="0px" y="0px"
	 viewBox="0 0 500 500" style="enable-background:new 0 0 500 500;" xml:space="preserve">
<style type="text/css">
	.st0{fill:#FF8A24;}
</style>
<g>
	<g>
		<path class="st0" d="M198.6,403.6c0.2,27,0.3,48.9,0.3,58.4c3.9,2.9,15.8,9,46.5,10.7l1.3,0.1l1.3,0.3c0.2,0,0.2,0.1,0.3,0.1
			c2.1,0,4.3,0,6.5-0.1l0.3,0l0.3,0c2.2,0,4.3,0.1,6.5,0.1c0,0,0.1,0,0.3-0.1l1.3-0.3l1.3-0.1c30.7-1.7,42.6-7.9,46.5-10.7
			c0.1-9.7,0.2-32.3,0.3-60.1C286.5,415.3,223.1,418,198.6,403.6z"/>
		<path class="st0" d="M300.1,203.7c-8.7-8.5-17.7-17.3-19.8-28.7c-1.2-6.5-3.9-30.3-6.4-56.6c-0.8,0.5-1.7,0.8-2.6,0.8
			c-2.7,0-4.9-2.2-4.9-4.9c0-2.7,2.2-4.9,4.9-4.9c0.6,0,1.3,0.1,1.8,0.4c-0.4-3.9-0.7-7.9-1.1-11.8c-0.4-5-0.9-9.7-1.2-14h-31.2
			c-0.4,4.4-0.8,9-1.2,14c0,0.3-0.1,0.6-0.1,0.9c1-0.6,2.2-0.9,3.4-0.9c4,0,7.3,3.3,7.3,7.3c0,4-3.3,7.3-7.3,7.3
			c-1.7,0-3.3-0.6-4.6-1.6c-2.8,29.2-5.8,56.9-7.1,64.1c-2.1,11.5-11.1,20.3-19.8,28.7c-4.2,4.1-12.1,11.8-12.6,14.9
			c0,4,0.1,20.8,0.2,43.9c24.1,13.1,89.7,11.9,114.6-0.6c0.1-22.8,0.2-39.4,0.2-43.4C312.2,215.5,304.3,207.8,300.1,203.7z
			 M248.7,231.2c-2.3,0-4.2-1.9-4.2-4.2c0-2.3,1.9-4.2,4.2-4.2c2.3,0,4.2,1.9,4.2,4.2C252.9,229.3,251,231.2,248.7,231.2z
			 M257,150.3c-2.2,0-4-1.8-4-4c0-2.2,1.8-4,4-4c2.2,0,4,1.8,4,4C261,148.5,259.2,150.3,257,150.3z M267.5,131.1
			c1.6,0,2.8,1.3,2.8,2.8s-1.3,2.8-2.8,2.8c-1.6,0-2.8-1.3-2.8-2.8S266,131.1,267.5,131.1z M268.3,182.6c-1.8,0-3.2-1.4-3.2-3.2
			s1.4-3.2,3.2-3.2c1.8,0,3.2,1.4,3.2,3.2S270.1,182.6,268.3,182.6z"/>
	</g>
	<path d="M326.7,296.1c0.2-39.5,0.4-71.8,0.4-77.5c0-16.3-29.9-31.3-32.6-46.2C292.2,160,283.5,74.2,282,38h4.2V27.2
		c0.1-0.5,0.1-1.1,0.1-1.6c0-6.8-5.5-12.4-12.4-12.4c-0.3,0-0.5,0-0.8,0c-1.7-0.2-3.6-0.3-5.5-0.3c-4.5,0-9.2,0.4-12.6,0.4
		s-8.1-0.4-12.6-0.4c-1.9,0-3.7,0.1-5.5,0.3c-0.3,0-0.5,0-0.8,0c-6.8,0-12.4,5.5-12.4,12.4c0,0.7,0.1,1.4,0.2,2.1V38h4.1
		c-1.4,36.2-10.2,122-12.4,134.4c-2.7,14.9-32.6,29.9-32.6,46.2c0,5.7,0.2,37.9,0.4,77.3c-13.9,1.5-18.8,11.8-17.6,21.7
		c0.9,7.8,7.9,13.3,17.8,16.9c0.1,14,0.2,28.2,0.2,41.8v13.1c0,0.5,0,1.1,0.1,1.6c0.1,24.6,0.3,46.3,0.3,60.2
		c0.1,8.9,4.2,22.3,12.2,26.2c6.6,3.2,16.7,6.4,32.1,8.4c8.8,1.1,16.8,1.6,17.8,1.8c0.6,0.1,1.2,0.1,1.8,0.1c2.4,0,4.6,0,6.9-0.1
		c2.2,0,4.5,0.1,6.9,0.1c0.6,0,1.2,0,1.8-0.1c1-0.1,9-0.6,17.8-1.8c15.4-2,25.5-5.2,32.1-8.4c8-3.9,12.1-17.3,12.2-26.2
		c0.1-14.1,0.2-36.2,0.4-61.3c0-0.2,0-0.3,0-0.5v-5.6c0.1-16,0.2-33.1,0.3-49.9c9-3.6,15.4-9,16.2-16.3
		C343.8,308,339.4,298.2,326.7,296.1z M183.5,296.9c0,5.7,0.1,11.5,0.1,17.3C172.8,308.5,180.3,300,183.5,296.9z M317.8,451.1
		c0,7.7-3.8,17.1-7.7,19c-7.2,3.5-17.1,6.1-29.5,7.6c-6.3,0.8-12.2,1.3-15.3,1.5c-1.5,0.1-2.1,0.2-2.5,0.2c-0.3,0-0.5,0.1-0.8,0.1
		c-2.2,0-4.4,0-6.7-0.1l-0.2,0l-0.2,0c-2.3,0-4.5,0.1-6.7,0.1c-0.2,0-0.5,0-0.8-0.1c-0.4-0.1-1-0.1-2.5-0.2c-3.1-0.3-9-0.7-15.3-1.5
		c-12.5-1.6-22.4-4.2-29.5-7.6c-3.8-1.9-7.6-11.3-7.7-19c-0.1-11-0.2-27.4-0.3-46.6c3.2,2.5,7.5,4.8,13.4,6.8
		c11.1,3.8,26.7,5.9,43.7,5.9c0,0,0,0,0,0c23,0,54.2-4.1,68.8-14.6C318,417.9,317.9,434.1,317.8,451.1z M318.1,389.4
		c0,9.4-29.4,19.9-68.8,19.9c0,0,0,0,0,0c-16.2,0-30.8-1.9-41.1-5.5c-7.2-2.5-15.7-6.9-16.1-13.9c0-2,0-4.1,0-6.2v-46.7
		c20.9,4.9,48.8,3.2,62.2-3.2c13.8,6.5,42.8,8.1,63.8,2.8V389.4z M318.1,316.6c-16.7,2.7-32.4-17.1-46.5-17.1
		c-5.8,0-12.3,3.2-17.3,7.7c-5.1-4.5-11.6-7.7-17.3-7.7c-13.7,0-28.8,18.6-44.9,17.3v-52.7c12.3,8.5,36.8,11.8,60.1,11.8
		c0,0,0,0,0,0c18,0,35.9-2,49-5.6c7.2-1.9,12.9-4.3,17-7L318.1,316.6L318.1,316.6z M318.9,247.6l-0.8,3.3c0,4.1-7.3,8.6-19.1,11.7
		c-12.4,3.4-29.5,5.3-46.9,5.3c0,0,0,0,0,0c-34.2,0-60.1-7.3-60.1-17l-0.8-4.3c-0.1-14.7-0.1-25-0.1-28c0-5.3,7.7-12.8,14.5-19.5
		c8-7.8,16.2-15.8,18-25.3c2.1-11.5,11.1-97.6,12.5-135.8h37.9c1.4,38.2,10.4,124.3,12.5,135.8c1.7,9.5,10,17.5,18,25.3
		c6.8,6.6,14.5,14.1,14.5,19.5C319,221.4,319,231.2,318.9,247.6z M326.6,313.3c0-5,0.1-9.9,0.1-14.7
		C329.9,302.1,333.7,308.4,326.6,313.3z"/>
</g>
</svg>
